<mxfile host="65bd71144e">
    <diagram id="RyvO_zELOoTN_cSPFuOR" name="Page-1">
        <mxGraphModel dx="907" dy="793" grid="1" gridSize="10" guides="1" tooltips="1" connect="1" arrows="1" fold="1" page="1" pageScale="1" pageWidth="850" pageHeight="1100" math="0" shadow="0">
            <root>
                <mxCell id="0"/>
                <mxCell id="1" parent="0"/>
                <mxCell id="37" value="" style="whiteSpace=wrap;html=1;fontSize=12;" vertex="1" parent="1">
                    <mxGeometry x="92" y="80" width="290" height="460" as="geometry"/>
                </mxCell>
                <mxCell id="30" value="" style="outlineConnect=0;dashed=0;verticalLabelPosition=bottom;verticalAlign=top;align=center;html=1;shape=mxgraph.aws3.router;fillColor=#F58534;gradientColor=none;" vertex="1" parent="1">
                    <mxGeometry x="550" y="490" width="90" height="92" as="geometry"/>
                </mxCell>
                <mxCell id="13" style="edgeStyle=none;html=1;exitX=0.5;exitY=1;exitDx=0;exitDy=0;entryX=0.5;entryY=0;entryDx=0;entryDy=0;endArrow=none;endFill=0;" parent="1" source="4" target="5" edge="1">
                    <mxGeometry relative="1" as="geometry"/>
                </mxCell>
                <mxCell id="10" style="edgeStyle=none;html=1;exitX=1;exitY=0.5;exitDx=0;exitDy=0;endArrow=none;endFill=0;" parent="1" source="5" target="9" edge="1">
                    <mxGeometry relative="1" as="geometry"/>
                </mxCell>
                <mxCell id="12" style="edgeStyle=none;html=1;exitX=1;exitY=0.5;exitDx=0;exitDy=0;exitPerimeter=0;entryX=0;entryY=0.5;entryDx=0;entryDy=0;endArrow=none;endFill=0;" parent="1" source="6" target="4" edge="1">
                    <mxGeometry relative="1" as="geometry"/>
                </mxCell>
                <mxCell id="14" style="edgeStyle=none;html=1;exitX=0.5;exitY=1;exitDx=0;exitDy=0;entryX=0.5;entryY=0;entryDx=0;entryDy=0;endArrow=none;endFill=0;" parent="1" source="2" target="4" edge="1">
                    <mxGeometry relative="1" as="geometry"/>
                </mxCell>
                <mxCell id="15" style="edgeStyle=none;html=1;exitX=0;exitY=0.5;exitDx=0;exitDy=0;entryX=1;entryY=0.5;entryDx=0;entryDy=0;endArrow=none;endFill=0;" parent="1" source="7" target="2" edge="1">
                    <mxGeometry relative="1" as="geometry"/>
                </mxCell>
                <mxCell id="7" value="" style="aspect=fixed;perimeter=ellipsePerimeter;html=1;align=center;shadow=0;dashed=0;fontColor=#4277BB;labelBackgroundColor=#ffffff;fontSize=12;spacingTop=3;image;image=img/lib/ibm/users/browser.svg;" parent="1" vertex="1">
                    <mxGeometry x="500" y="80" width="110" height="110" as="geometry"/>
                </mxCell>
                <mxCell id="16" value="8001" style="text;html=1;resizable=0;autosize=1;align=center;verticalAlign=middle;points=[];fillColor=none;strokeColor=none;rounded=0;" parent="1" vertex="1">
                    <mxGeometry x="330" y="260" width="40" height="20" as="geometry"/>
                </mxCell>
                <mxCell id="21" value="8888" style="text;html=1;resizable=0;autosize=1;align=center;verticalAlign=middle;points=[];fillColor=none;strokeColor=none;rounded=0;" parent="1" vertex="1">
                    <mxGeometry x="380" y="115" width="40" height="20" as="geometry"/>
                </mxCell>
                <mxCell id="23" value="5051" style="text;html=1;resizable=0;autosize=1;align=center;verticalAlign=middle;points=[];fillColor=none;strokeColor=none;rounded=0;" parent="1" vertex="1">
                    <mxGeometry x="290" y="420" width="40" height="20" as="geometry"/>
                </mxCell>
                <mxCell id="24" value="27017" style="text;html=1;resizable=0;autosize=1;align=center;verticalAlign=middle;points=[];fillColor=none;strokeColor=none;rounded=0;" parent="1" vertex="1">
                    <mxGeometry x="180" y="300" width="50" height="20" as="geometry"/>
                </mxCell>
                <mxCell id="26" value="179 (BGP)" style="text;html=1;resizable=0;autosize=1;align=center;verticalAlign=middle;points=[];fillColor=none;strokeColor=none;rounded=0;" parent="1" vertex="1">
                    <mxGeometry x="379" y="460" width="70" height="20" as="geometry"/>
                </mxCell>
                <mxCell id="27" value="Client (browser)" style="text;html=1;resizable=0;autosize=1;align=center;verticalAlign=middle;points=[];fillColor=none;strokeColor=none;rounded=0;" parent="1" vertex="1">
                    <mxGeometry x="510" y="190" width="100" height="20" as="geometry"/>
                </mxCell>
                <mxCell id="29" value="" style="outlineConnect=0;dashed=0;verticalLabelPosition=bottom;verticalAlign=top;align=center;html=1;shape=mxgraph.aws3.router;fillColor=#F58534;gradientColor=none;" vertex="1" parent="1">
                    <mxGeometry x="530" y="460" width="90" height="92" as="geometry"/>
                </mxCell>
                <mxCell id="9" value="" style="outlineConnect=0;dashed=0;verticalLabelPosition=bottom;verticalAlign=top;align=center;html=1;shape=mxgraph.aws3.router;fillColor=#F58534;gradientColor=none;" parent="1" vertex="1">
                    <mxGeometry x="510" y="434" width="90" height="92" as="geometry"/>
                </mxCell>
                <mxCell id="31" value="BGP router(s)" style="text;html=1;resizable=0;autosize=1;align=center;verticalAlign=middle;points=[];fillColor=none;strokeColor=none;rounded=0;fontSize=12;" vertex="1" parent="1">
                    <mxGeometry x="540" y="414" width="90" height="20" as="geometry"/>
                </mxCell>
                <mxCell id="32" value="" style="group" vertex="1" connectable="0" parent="1">
                    <mxGeometry x="290" y="280" width="80" height="80" as="geometry"/>
                </mxCell>
                <mxCell id="4" value="" style="ellipse;whiteSpace=wrap;html=1;aspect=fixed;" parent="32" vertex="1">
                    <mxGeometry width="80" height="80" as="geometry"/>
                </mxCell>
                <mxCell id="25" value="Backend&lt;br&gt;App" style="text;html=1;resizable=0;autosize=1;align=center;verticalAlign=middle;points=[];fillColor=none;strokeColor=none;rounded=0;" parent="32" vertex="1">
                    <mxGeometry x="10" y="25" width="60" height="30" as="geometry"/>
                </mxCell>
                <mxCell id="33" value="" style="group" vertex="1" connectable="0" parent="1">
                    <mxGeometry x="110" y="280" width="70" height="80" as="geometry"/>
                </mxCell>
                <mxCell id="6" value="" style="shape=cylinder3;whiteSpace=wrap;html=1;boundedLbl=1;backgroundOutline=1;size=15;" parent="33" vertex="1">
                    <mxGeometry width="70" height="80" as="geometry"/>
                </mxCell>
                <mxCell id="19" value="MongoDB" style="text;html=1;resizable=0;autosize=1;align=center;verticalAlign=middle;points=[];fillColor=none;strokeColor=none;rounded=0;" parent="33" vertex="1">
                    <mxGeometry y="40" width="70" height="20" as="geometry"/>
                </mxCell>
                <mxCell id="35" value="" style="group" vertex="1" connectable="0" parent="1">
                    <mxGeometry x="290" y="95" width="80" height="80" as="geometry"/>
                </mxCell>
                <mxCell id="2" value="" style="ellipse;whiteSpace=wrap;html=1;aspect=fixed;" parent="35" vertex="1">
                    <mxGeometry width="80" height="80" as="geometry"/>
                </mxCell>
                <mxCell id="17" value="NGINX&lt;br&gt;with&lt;br&gt;React APP" style="text;html=1;resizable=0;autosize=1;align=center;verticalAlign=middle;points=[];fillColor=none;strokeColor=none;rounded=0;" parent="35" vertex="1">
                    <mxGeometry x="5" y="10" width="70" height="50" as="geometry"/>
                </mxCell>
                <mxCell id="36" value="" style="group" vertex="1" connectable="0" parent="1">
                    <mxGeometry x="290" y="440" width="80" height="80" as="geometry"/>
                </mxCell>
                <mxCell id="5" value="" style="ellipse;whiteSpace=wrap;html=1;aspect=fixed;" parent="36" vertex="1">
                    <mxGeometry width="80" height="80" as="geometry"/>
                </mxCell>
                <mxCell id="20" value="GoBGPd" style="text;html=1;resizable=0;autosize=1;align=center;verticalAlign=middle;points=[];fillColor=none;strokeColor=none;rounded=0;" parent="36" vertex="1">
                    <mxGeometry x="10" y="30" width="60" height="20" as="geometry"/>
                </mxCell>
                <mxCell id="38" value="Docker Host" style="text;html=1;resizable=0;autosize=1;align=center;verticalAlign=middle;points=[];fillColor=none;strokeColor=none;rounded=0;fontSize=14;" vertex="1" parent="1">
                    <mxGeometry x="95" y="90" width="90" height="20" as="geometry"/>
                </mxCell>
            </root>
        </mxGraphModel>
    </diagram>
</mxfile>